<?xml version="1.0" encoding="UTF-8" standalone="no"?>
<!DOCTYPE svg PUBLIC "-//W3C//DTD SVG 1.1//EN"
 "http://www.w3.org/Graphics/SVG/1.1/DTD/svg11.dtd">
<!-- Generated by graphviz version 2.47.0 (20210316.0004)
 -->
<!-- Title: dependencies Pages: 1 -->
<svg width="764pt" height="211pt"
 viewBox="0.00 0.00 764.00 211.00" xmlns="http://www.w3.org/2000/svg" xmlns:xlink="http://www.w3.org/1999/xlink">
<g id="graph0" class="graph" transform="scale(1 1) rotate(0) translate(4 207)">
<title>dependencies</title>
<polygon fill="white" stroke="transparent" points="-4,4 -4,-207 760,-207 760,4 -4,4"/>
<text text-anchor="start" x="357.01" y="-42.4" font-family="sans-serif" font-weight="bold" font-size="14.00">Legend</text>
<polygon fill="#ffffb3" stroke="transparent" points="144,-10 144,-30 164,-30 164,-10 144,-10"/>
<text text-anchor="start" x="167.63" y="-15.4" font-family="sans-serif" font-size="14.00"> &#160;Declarations</text>
<polygon fill="#8dd3c7" stroke="transparent" points="257,-10 257,-30 277,-30 277,-10 257,-10"/>
<text text-anchor="start" x="280.73" y="-15.4" font-family="sans-serif" font-size="14.00"> &#160;Module</text>
<polygon fill="#80b1d3" stroke="transparent" points="343,-10 343,-30 363,-30 363,-10 343,-10"/>
<text text-anchor="start" x="366.78" y="-15.4" font-family="sans-serif" font-size="14.00"> &#160;Bootstrap</text>
<polygon fill="#fdb462" stroke="transparent" points="440,-10 440,-30 460,-30 460,-10 440,-10"/>
<text text-anchor="start" x="463.67" y="-15.4" font-family="sans-serif" font-size="14.00"> &#160;Providers</text>
<polygon fill="#fb8072" stroke="transparent" points="536,-10 536,-30 556,-30 556,-10 536,-10"/>
<text text-anchor="start" x="559.73" y="-15.4" font-family="sans-serif" font-size="14.00"> &#160;Exports</text>
<g id="clust1" class="cluster">
<title>cluster_CocktailModule</title>
<polygon fill="none" stroke="black" stroke-dasharray="1,5" points="8,-70 8,-195 748,-195 748,-70 8,-70"/>
</g>
<g id="clust7" class="cluster">
<title>cluster_CocktailModule_imports</title>
<polygon fill="none" stroke="black" points="572,-78 572,-130 740,-130 740,-78 572,-78"/>
</g>
<g id="clust2" class="cluster">
<title>cluster_CocktailModule_declarations</title>
<polygon fill="none" stroke="black" points="16,-78 16,-130 564,-130 564,-78 16,-78"/>
</g>
<!-- CAddComponent -->
<g id="node1" class="node">
<title>CAddComponent</title>
<polygon fill="#ffffb3" stroke="black" points="556.28,-122 441.72,-122 441.72,-86 556.28,-86 556.28,-122"/>
<text text-anchor="middle" x="499" y="-99.8" font-family="Times,serif" font-size="14.00">CAddComponent</text>
</g>
<!-- CocktailModule -->
<g id="node5" class="node">
<title>CocktailModule</title>
<polygon fill="#8dd3c7" stroke="black" points="413.49,-187 410.49,-191 389.49,-191 386.49,-187 306.51,-187 306.51,-151 413.49,-151 413.49,-187"/>
<text text-anchor="middle" x="360" y="-164.8" font-family="Times,serif" font-size="14.00">CocktailModule</text>
</g>
<!-- CAddComponent&#45;&gt;CocktailModule -->
<g id="edge1" class="edge">
<title>CAddComponent&#45;&gt;CocktailModule</title>
<path fill="none" stroke="black" d="M499,-122.02C499,-139.37 499,-163 499,-163 499,-163 423.74,-163 423.74,-163"/>
<polygon fill="black" stroke="black" points="423.74,-159.5 413.74,-163 423.74,-166.5 423.74,-159.5"/>
</g>
<!-- CDeleteComponent -->
<g id="node2" class="node">
<title>CDeleteComponent</title>
<polygon fill="#ffffb3" stroke="black" points="423.7,-122 296.3,-122 296.3,-86 423.7,-86 423.7,-122"/>
<text text-anchor="middle" x="360" y="-99.8" font-family="Times,serif" font-size="14.00">CDeleteComponent</text>
</g>
<!-- CDeleteComponent&#45;&gt;CocktailModule -->
<g id="edge2" class="edge">
<title>CDeleteComponent&#45;&gt;CocktailModule</title>
<path fill="none" stroke="black" d="M360,-122.11C360,-122.11 360,-140.99 360,-140.99"/>
<polygon fill="black" stroke="black" points="356.5,-140.99 360,-150.99 363.5,-140.99 356.5,-140.99"/>
</g>
<!-- CEditComponent -->
<g id="node3" class="node">
<title>CEditComponent</title>
<polygon fill="#ffffb3" stroke="black" points="278,-122 164,-122 164,-86 278,-86 278,-122"/>
<text text-anchor="middle" x="221" y="-99.8" font-family="Times,serif" font-size="14.00">CEditComponent</text>
</g>
<!-- CEditComponent&#45;&gt;CocktailModule -->
<g id="edge3" class="edge">
<title>CEditComponent&#45;&gt;CocktailModule</title>
<path fill="none" stroke="black" d="M221,-122.02C221,-139.37 221,-163 221,-163 221,-163 296.26,-163 296.26,-163"/>
<polygon fill="black" stroke="black" points="296.26,-166.5 306.26,-163 296.26,-159.5 296.26,-166.5"/>
</g>
<!-- CIndexComponent -->
<g id="node4" class="node">
<title>CIndexComponent</title>
<polygon fill="#ffffb3" stroke="black" points="146.05,-122 23.95,-122 23.95,-86 146.05,-86 146.05,-122"/>
<text text-anchor="middle" x="85" y="-99.8" font-family="Times,serif" font-size="14.00">CIndexComponent</text>
</g>
<!-- CIndexComponent&#45;&gt;CocktailModule -->
<g id="edge4" class="edge">
<title>CIndexComponent&#45;&gt;CocktailModule</title>
<path fill="none" stroke="black" d="M85,-122.28C85,-143.32 85,-175 85,-175 85,-175 296.32,-175 296.32,-175"/>
<polygon fill="black" stroke="black" points="296.32,-178.5 306.32,-175 296.32,-171.5 296.32,-178.5"/>
</g>
<!-- CocktailRoutingModule -->
<g id="node6" class="node">
<title>CocktailRoutingModule</title>
<polygon fill="#8dd3c7" stroke="black" points="732.11,-122 729.11,-126 708.11,-126 705.11,-122 579.89,-122 579.89,-86 732.11,-86 732.11,-122"/>
<text text-anchor="middle" x="656" y="-99.8" font-family="Times,serif" font-size="14.00">CocktailRoutingModule</text>
</g>
<!-- CocktailRoutingModule&#45;&gt;CocktailModule -->
<g id="edge5" class="edge">
<title>CocktailRoutingModule&#45;&gt;CocktailModule</title>
<path fill="none" stroke="black" d="M656,-122.28C656,-143.32 656,-175 656,-175 656,-175 423.6,-175 423.6,-175"/>
<polygon fill="black" stroke="black" points="423.6,-171.5 413.6,-175 423.6,-178.5 423.6,-171.5"/>
</g>
</g>
</svg>
