<?xml version="1.0" encoding="UTF-8" standalone="no"?>
<!DOCTYPE svg PUBLIC "-//W3C//DTD SVG 1.1//EN"
 "http://www.w3.org/Graphics/SVG/1.1/DTD/svg11.dtd">
<!-- Generated by graphviz version 2.47.0 (20210316.0004)
 -->
<!-- Title: dependencies Pages: 1 -->
<svg width="3034pt" height="284pt"
 viewBox="0.00 0.00 3034.00 284.00" xmlns="http://www.w3.org/2000/svg" xmlns:xlink="http://www.w3.org/1999/xlink">
<g id="graph0" class="graph" transform="scale(1 1) rotate(0) translate(4 280)">
<title>dependencies</title>
<polygon fill="white" stroke="transparent" points="-4,4 -4,-280 3030,-280 3030,4 -4,4"/>
<text text-anchor="start" x="1492.01" y="-42.4" font-family="sans-serif" font-weight="bold" font-size="14.00">Legend</text>
<polygon fill="#ffffb3" stroke="transparent" points="1279,-10 1279,-30 1299,-30 1299,-10 1279,-10"/>
<text text-anchor="start" x="1302.63" y="-15.4" font-family="sans-serif" font-size="14.00"> &#160;Declarations</text>
<polygon fill="#8dd3c7" stroke="transparent" points="1392,-10 1392,-30 1412,-30 1412,-10 1392,-10"/>
<text text-anchor="start" x="1415.73" y="-15.4" font-family="sans-serif" font-size="14.00"> &#160;Module</text>
<polygon fill="#80b1d3" stroke="transparent" points="1478,-10 1478,-30 1498,-30 1498,-10 1478,-10"/>
<text text-anchor="start" x="1501.78" y="-15.4" font-family="sans-serif" font-size="14.00"> &#160;Bootstrap</text>
<polygon fill="#fdb462" stroke="transparent" points="1575,-10 1575,-30 1595,-30 1595,-10 1575,-10"/>
<text text-anchor="start" x="1598.67" y="-15.4" font-family="sans-serif" font-size="14.00"> &#160;Providers</text>
<polygon fill="#fb8072" stroke="transparent" points="1671,-10 1671,-30 1691,-30 1691,-10 1671,-10"/>
<text text-anchor="start" x="1694.73" y="-15.4" font-family="sans-serif" font-size="14.00"> &#160;Exports</text>
<g id="clust1" class="cluster">
<title>cluster_AdminModule</title>
<polygon fill="none" stroke="black" stroke-dasharray="1,5" points="8,-70 8,-195 494,-195 494,-70 8,-70"/>
</g>
<g id="clust2" class="cluster">
<title>cluster_AdminModule_declarations</title>
<polygon fill="none" stroke="black" points="184,-78 184,-130 486,-130 486,-78 184,-78"/>
</g>
<g id="clust5" class="cluster">
<title>cluster_AdminModule_imports</title>
<polygon fill="none" stroke="black" points="16,-78 16,-130 176,-130 176,-78 16,-78"/>
</g>
<g id="clust15" class="cluster">
<title>cluster_AppModule</title>
<polygon fill="none" stroke="black" stroke-dasharray="1,5" points="502,-70 502,-268 792,-268 792,-70 502,-70"/>
</g>
<g id="clust16" class="cluster">
<title>cluster_AppModule_declarations</title>
<polygon fill="none" stroke="black" points="662,-78 662,-130 784,-130 784,-78 662,-78"/>
</g>
<g id="clust18" class="cluster">
<title>cluster_AppModule_imports</title>
<polygon fill="none" stroke="black" points="510,-78 510,-130 654,-130 654,-78 510,-78"/>
</g>
<g id="clust20" class="cluster">
<title>cluster_AppModule_bootstrap</title>
<polygon fill="none" stroke="black" points="590,-208 590,-260 714,-260 714,-208 590,-208"/>
</g>
<g id="clust28" class="cluster">
<title>cluster_CocktailModule</title>
<polygon fill="none" stroke="black" stroke-dasharray="1,5" points="800,-70 800,-195 1540,-195 1540,-70 800,-70"/>
</g>
<g id="clust29" class="cluster">
<title>cluster_CocktailModule_declarations</title>
<polygon fill="none" stroke="black" points="984,-78 984,-130 1532,-130 1532,-78 984,-78"/>
</g>
<g id="clust34" class="cluster">
<title>cluster_CocktailModule_imports</title>
<polygon fill="none" stroke="black" points="808,-78 808,-130 976,-130 976,-78 808,-78"/>
</g>
<g id="clust44" class="cluster">
<title>cluster_PublicModule</title>
<polygon fill="none" stroke="black" stroke-dasharray="1,5" points="1548,-70 1548,-195 2286,-195 2286,-70 1548,-70"/>
</g>
<g id="clust45" class="cluster">
<title>cluster_PublicModule_declarations</title>
<polygon fill="none" stroke="black" points="1720,-78 1720,-130 2278,-130 2278,-78 1720,-78"/>
</g>
<g id="clust50" class="cluster">
<title>cluster_PublicModule_imports</title>
<polygon fill="none" stroke="black" points="1556,-78 1556,-130 1712,-130 1712,-78 1556,-78"/>
</g>
<g id="clust60" class="cluster">
<title>cluster_UserModule</title>
<polygon fill="none" stroke="black" stroke-dasharray="1,5" points="2294,-70 2294,-195 3018,-195 3018,-70 2294,-70"/>
</g>
<g id="clust61" class="cluster">
<title>cluster_UserModule_declarations</title>
<polygon fill="none" stroke="black" points="2458,-78 2458,-130 3010,-130 3010,-78 2458,-78"/>
</g>
<g id="clust66" class="cluster">
<title>cluster_UserModule_imports</title>
<polygon fill="none" stroke="black" points="2302,-78 2302,-130 2450,-130 2450,-78 2302,-78"/>
</g>
<!-- AlayoutComponent -->
<g id="node1" class="node">
<title>AlayoutComponent</title>
<polygon fill="#ffffb3" stroke="black" points="478.44,-122 351.56,-122 351.56,-86 478.44,-86 478.44,-122"/>
<text text-anchor="middle" x="415" y="-99.8" font-family="Times,serif" font-size="14.00">AlayoutComponent</text>
</g>
<!-- AdminModule -->
<g id="node3" class="node">
<title>AdminModule</title>
<polygon fill="#8dd3c7" stroke="black" points="312.44,-187 309.44,-191 288.44,-191 285.44,-187 213.56,-187 213.56,-151 312.44,-151 312.44,-187"/>
<text text-anchor="middle" x="263" y="-164.8" font-family="Times,serif" font-size="14.00">AdminModule</text>
</g>
<!-- AlayoutComponent&#45;&gt;AdminModule -->
<g id="edge1" class="edge">
<title>AlayoutComponent&#45;&gt;AdminModule</title>
<path fill="none" stroke="black" d="M415,-122.11C415,-141.34 415,-169 415,-169 415,-169 322.35,-169 322.35,-169"/>
<polygon fill="black" stroke="black" points="322.35,-165.5 312.35,-169 322.35,-172.5 322.35,-165.5"/>
</g>
<!-- DashboardComponent -->
<g id="node2" class="node">
<title>DashboardComponent</title>
<polygon fill="#ffffb3" stroke="black" points="333.97,-122 192.03,-122 192.03,-86 333.97,-86 333.97,-122"/>
<text text-anchor="middle" x="263" y="-99.8" font-family="Times,serif" font-size="14.00">DashboardComponent</text>
</g>
<!-- DashboardComponent&#45;&gt;AdminModule -->
<g id="edge2" class="edge">
<title>DashboardComponent&#45;&gt;AdminModule</title>
<path fill="none" stroke="black" d="M263,-122.11C263,-122.11 263,-140.99 263,-140.99"/>
<polygon fill="black" stroke="black" points="259.5,-140.99 263,-150.99 266.5,-140.99 259.5,-140.99"/>
</g>
<!-- AdminRoutingModule -->
<g id="node4" class="node">
<title>AdminRoutingModule</title>
<polygon fill="#8dd3c7" stroke="black" points="167.56,-122 164.56,-126 143.56,-126 140.56,-122 24.44,-122 24.44,-86 167.56,-86 167.56,-122"/>
<text text-anchor="middle" x="96" y="-99.8" font-family="Times,serif" font-size="14.00">AdminRoutingModule</text>
</g>
<!-- AdminRoutingModule&#45;&gt;AdminModule -->
<g id="edge3" class="edge">
<title>AdminRoutingModule&#45;&gt;AdminModule</title>
<path fill="none" stroke="black" d="M96,-122.11C96,-141.34 96,-169 96,-169 96,-169 203.35,-169 203.35,-169"/>
<polygon fill="black" stroke="black" points="203.35,-172.5 213.35,-169 203.35,-165.5 203.35,-172.5"/>
</g>
<!-- AppComponent -->
<g id="node5" class="node">
<title>AppComponent</title>
<polygon fill="#ffffb3" stroke="black" points="775.94,-122 670.06,-122 670.06,-86 775.94,-86 775.94,-122"/>
<text text-anchor="middle" x="723" y="-99.8" font-family="Times,serif" font-size="14.00">AppComponent</text>
</g>
<!-- AppModule -->
<g id="node6" class="node">
<title>AppModule</title>
<polygon fill="#8dd3c7" stroke="black" points="693.66,-187 690.66,-191 669.66,-191 666.66,-187 610.34,-187 610.34,-151 693.66,-151 693.66,-187"/>
<text text-anchor="middle" x="652" y="-164.8" font-family="Times,serif" font-size="14.00">AppModule</text>
</g>
<!-- AppComponent&#45;&gt;AppModule -->
<g id="edge4" class="edge">
<title>AppComponent&#45;&gt;AppModule</title>
<path fill="none" stroke="black" d="M682.05,-122.11C682.05,-122.11 682.05,-140.99 682.05,-140.99"/>
<polygon fill="black" stroke="black" points="678.55,-140.99 682.05,-150.99 685.55,-140.99 678.55,-140.99"/>
</g>
<!-- AppComponent  -->
<g id="node8" class="node">
<title>AppComponent </title>
<polygon fill="#80b1d3" stroke="black" points="706.44,-252 597.56,-252 597.56,-216 706.44,-216 706.44,-252"/>
<text text-anchor="middle" x="652" y="-229.8" font-family="Times,serif" font-size="14.00">AppComponent </text>
</g>
<!-- AppModule&#45;&gt;AppComponent  -->
<g id="edge6" class="edge">
<title>AppModule&#45;&gt;AppComponent </title>
<path fill="none" stroke="black" stroke-dasharray="1,5" d="M652,-187.11C652,-187.11 652,-205.99 652,-205.99"/>
<polygon fill="black" stroke="black" points="648.5,-205.99 652,-215.99 655.5,-205.99 648.5,-205.99"/>
</g>
<!-- AppRoutingModule -->
<g id="node7" class="node">
<title>AppRoutingModule</title>
<polygon fill="#8dd3c7" stroke="black" points="646.27,-122 643.27,-126 622.27,-126 619.27,-122 517.73,-122 517.73,-86 646.27,-86 646.27,-122"/>
<text text-anchor="middle" x="582" y="-99.8" font-family="Times,serif" font-size="14.00">AppRoutingModule</text>
</g>
<!-- AppRoutingModule&#45;&gt;AppModule -->
<g id="edge5" class="edge">
<title>AppRoutingModule&#45;&gt;AppModule</title>
<path fill="none" stroke="black" d="M628.28,-122.11C628.28,-122.11 628.28,-140.99 628.28,-140.99"/>
<polygon fill="black" stroke="black" points="624.78,-140.99 628.28,-150.99 631.78,-140.99 624.78,-140.99"/>
</g>
<!-- CAddComponent -->
<g id="node9" class="node">
<title>CAddComponent</title>
<polygon fill="#ffffb3" stroke="black" points="1524.28,-122 1409.72,-122 1409.72,-86 1524.28,-86 1524.28,-122"/>
<text text-anchor="middle" x="1467" y="-99.8" font-family="Times,serif" font-size="14.00">CAddComponent</text>
</g>
<!-- CocktailModule -->
<g id="node13" class="node">
<title>CocktailModule</title>
<polygon fill="#8dd3c7" stroke="black" points="1242.49,-187 1239.49,-191 1218.49,-191 1215.49,-187 1135.51,-187 1135.51,-151 1242.49,-151 1242.49,-187"/>
<text text-anchor="middle" x="1189" y="-164.8" font-family="Times,serif" font-size="14.00">CocktailModule</text>
</g>
<!-- CAddComponent&#45;&gt;CocktailModule -->
<g id="edge7" class="edge">
<title>CAddComponent&#45;&gt;CocktailModule</title>
<path fill="none" stroke="black" d="M1467,-122.01C1467,-144.49 1467,-180 1467,-180 1467,-180 1252.6,-180 1252.6,-180"/>
<polygon fill="black" stroke="black" points="1252.6,-176.5 1242.6,-180 1252.6,-183.5 1252.6,-176.5"/>
</g>
<!-- CDeleteComponent -->
<g id="node10" class="node">
<title>CDeleteComponent</title>
<polygon fill="#ffffb3" stroke="black" points="1391.7,-122 1264.3,-122 1264.3,-86 1391.7,-86 1391.7,-122"/>
<text text-anchor="middle" x="1328" y="-99.8" font-family="Times,serif" font-size="14.00">CDeleteComponent</text>
</g>
<!-- CDeleteComponent&#45;&gt;CocktailModule -->
<g id="edge8" class="edge">
<title>CDeleteComponent&#45;&gt;CocktailModule</title>
<path fill="none" stroke="black" d="M1328,-122.13C1328,-142.57 1328,-173 1328,-173 1328,-173 1252.74,-173 1252.74,-173"/>
<polygon fill="black" stroke="black" points="1252.74,-169.5 1242.74,-173 1252.74,-176.5 1252.74,-169.5"/>
</g>
<!-- CEditComponent -->
<g id="node11" class="node">
<title>CEditComponent</title>
<polygon fill="#ffffb3" stroke="black" points="1246,-122 1132,-122 1132,-86 1246,-86 1246,-122"/>
<text text-anchor="middle" x="1189" y="-99.8" font-family="Times,serif" font-size="14.00">CEditComponent</text>
</g>
<!-- CEditComponent&#45;&gt;CocktailModule -->
<g id="edge9" class="edge">
<title>CEditComponent&#45;&gt;CocktailModule</title>
<path fill="none" stroke="black" d="M1189,-122.11C1189,-122.11 1189,-140.99 1189,-140.99"/>
<polygon fill="black" stroke="black" points="1185.5,-140.99 1189,-150.99 1192.5,-140.99 1185.5,-140.99"/>
</g>
<!-- CIndexComponent -->
<g id="node12" class="node">
<title>CIndexComponent</title>
<polygon fill="#ffffb3" stroke="black" points="1114.05,-122 991.95,-122 991.95,-86 1114.05,-86 1114.05,-122"/>
<text text-anchor="middle" x="1053" y="-99.8" font-family="Times,serif" font-size="14.00">CIndexComponent</text>
</g>
<!-- CIndexComponent&#45;&gt;CocktailModule -->
<g id="edge10" class="edge">
<title>CIndexComponent&#45;&gt;CocktailModule</title>
<path fill="none" stroke="black" d="M1053,-122.02C1053,-139.37 1053,-163 1053,-163 1053,-163 1125.25,-163 1125.25,-163"/>
<polygon fill="black" stroke="black" points="1125.25,-166.5 1135.25,-163 1125.25,-159.5 1125.25,-166.5"/>
</g>
<!-- CocktailRoutingModule -->
<g id="node14" class="node">
<title>CocktailRoutingModule</title>
<polygon fill="#8dd3c7" stroke="black" points="968.11,-122 965.11,-126 944.11,-126 941.11,-122 815.89,-122 815.89,-86 968.11,-86 968.11,-122"/>
<text text-anchor="middle" x="892" y="-99.8" font-family="Times,serif" font-size="14.00">CocktailRoutingModule</text>
</g>
<!-- CocktailRoutingModule&#45;&gt;CocktailModule -->
<g id="edge11" class="edge">
<title>CocktailRoutingModule&#45;&gt;CocktailModule</title>
<path fill="none" stroke="black" d="M892,-122.28C892,-143.32 892,-175 892,-175 892,-175 1125.22,-175 1125.22,-175"/>
<polygon fill="black" stroke="black" points="1125.22,-178.5 1135.22,-175 1125.22,-171.5 1125.22,-178.5"/>
</g>
<!-- ContactComponent -->
<g id="node15" class="node">
<title>ContactComponent</title>
<polygon fill="#ffffb3" stroke="black" points="2270.38,-122 2145.62,-122 2145.62,-86 2270.38,-86 2270.38,-122"/>
<text text-anchor="middle" x="2208" y="-99.8" font-family="Times,serif" font-size="14.00">ContactComponent</text>
</g>
<!-- PublicModule -->
<g id="node19" class="node">
<title>PublicModule</title>
<polygon fill="#8dd3c7" stroke="black" points="1979.83,-187 1976.83,-191 1955.83,-191 1952.83,-187 1884.17,-187 1884.17,-151 1979.83,-151 1979.83,-187"/>
<text text-anchor="middle" x="1932" y="-164.8" font-family="Times,serif" font-size="14.00">PublicModule</text>
</g>
<!-- ContactComponent&#45;&gt;PublicModule -->
<g id="edge12" class="edge">
<title>ContactComponent&#45;&gt;PublicModule</title>
<path fill="none" stroke="black" d="M2208,-122.27C2208,-140.56 2208,-166 2208,-166 2208,-166 1989.76,-166 1989.76,-166"/>
<polygon fill="black" stroke="black" points="1989.76,-162.5 1979.76,-166 1989.76,-169.5 1989.76,-162.5"/>
</g>
<!-- HomeComponent -->
<g id="node16" class="node">
<title>HomeComponent</title>
<polygon fill="#ffffb3" stroke="black" points="2127.55,-122 2012.45,-122 2012.45,-86 2127.55,-86 2127.55,-122"/>
<text text-anchor="middle" x="2070" y="-99.8" font-family="Times,serif" font-size="14.00">HomeComponent</text>
</g>
<!-- HomeComponent&#45;&gt;PublicModule -->
<g id="edge13" class="edge">
<title>HomeComponent&#45;&gt;PublicModule</title>
<path fill="none" stroke="black" d="M2070,-122.01C2070,-138.05 2070,-159 2070,-159 2070,-159 1989.88,-159 1989.88,-159"/>
<polygon fill="black" stroke="black" points="1989.88,-155.5 1979.88,-159 1989.88,-162.5 1989.88,-155.5"/>
</g>
<!-- PlayoutComponent -->
<g id="node17" class="node">
<title>PlayoutComponent</title>
<polygon fill="#ffffb3" stroke="black" points="1994.11,-122 1869.89,-122 1869.89,-86 1994.11,-86 1994.11,-122"/>
<text text-anchor="middle" x="1932" y="-99.8" font-family="Times,serif" font-size="14.00">PlayoutComponent</text>
</g>
<!-- PlayoutComponent&#45;&gt;PublicModule -->
<g id="edge14" class="edge">
<title>PlayoutComponent&#45;&gt;PublicModule</title>
<path fill="none" stroke="black" d="M1932,-122.11C1932,-122.11 1932,-140.99 1932,-140.99"/>
<polygon fill="black" stroke="black" points="1928.5,-140.99 1932,-150.99 1935.5,-140.99 1928.5,-140.99"/>
</g>
<!-- ServiceComponent -->
<g id="node18" class="node">
<title>ServiceComponent</title>
<polygon fill="#ffffb3" stroke="black" points="1851.81,-122 1728.19,-122 1728.19,-86 1851.81,-86 1851.81,-122"/>
<text text-anchor="middle" x="1790" y="-99.8" font-family="Times,serif" font-size="14.00">ServiceComponent</text>
</g>
<!-- ServiceComponent&#45;&gt;PublicModule -->
<g id="edge15" class="edge">
<title>ServiceComponent&#45;&gt;PublicModule</title>
<path fill="none" stroke="black" d="M1790,-122.01C1790,-138.05 1790,-159 1790,-159 1790,-159 1874.32,-159 1874.32,-159"/>
<polygon fill="black" stroke="black" points="1874.32,-162.5 1884.32,-159 1874.32,-155.5 1874.32,-162.5"/>
</g>
<!-- PublicRoutingModule -->
<g id="node20" class="node">
<title>PublicRoutingModule</title>
<polygon fill="#8dd3c7" stroke="black" points="1704.45,-122 1701.45,-126 1680.45,-126 1677.45,-122 1563.55,-122 1563.55,-86 1704.45,-86 1704.45,-122"/>
<text text-anchor="middle" x="1634" y="-99.8" font-family="Times,serif" font-size="14.00">PublicRoutingModule</text>
</g>
<!-- PublicRoutingModule&#45;&gt;PublicModule -->
<g id="edge16" class="edge">
<title>PublicRoutingModule&#45;&gt;PublicModule</title>
<path fill="none" stroke="black" d="M1634,-122.27C1634,-140.56 1634,-166 1634,-166 1634,-166 1874.12,-166 1874.12,-166"/>
<polygon fill="black" stroke="black" points="1874.12,-169.5 1884.12,-166 1874.12,-162.5 1874.12,-169.5"/>
</g>
<!-- UAddComponent -->
<g id="node21" class="node">
<title>UAddComponent</title>
<polygon fill="#ffffb3" stroke="black" points="3001.55,-122 2886.45,-122 2886.45,-86 3001.55,-86 3001.55,-122"/>
<text text-anchor="middle" x="2944" y="-99.8" font-family="Times,serif" font-size="14.00">UAddComponent</text>
</g>
<!-- UserModule -->
<g id="node25" class="node">
<title>UserModule</title>
<polygon fill="#8dd3c7" stroke="black" points="2707.98,-187 2704.98,-191 2683.98,-191 2680.98,-187 2622.02,-187 2622.02,-151 2707.98,-151 2707.98,-187"/>
<text text-anchor="middle" x="2665" y="-164.8" font-family="Times,serif" font-size="14.00">UserModule</text>
</g>
<!-- UAddComponent&#45;&gt;UserModule -->
<g id="edge17" class="edge">
<title>UAddComponent&#45;&gt;UserModule</title>
<path fill="none" stroke="black" d="M2944,-122.28C2944,-143.32 2944,-175 2944,-175 2944,-175 2717.98,-175 2717.98,-175"/>
<polygon fill="black" stroke="black" points="2717.98,-171.5 2707.98,-175 2717.98,-178.5 2717.98,-171.5"/>
</g>
<!-- UDeleteComponent -->
<g id="node22" class="node">
<title>UDeleteComponent</title>
<polygon fill="#ffffb3" stroke="black" points="2867.97,-122 2740.03,-122 2740.03,-86 2867.97,-86 2867.97,-122"/>
<text text-anchor="middle" x="2804" y="-99.8" font-family="Times,serif" font-size="14.00">UDeleteComponent</text>
</g>
<!-- UDeleteComponent&#45;&gt;UserModule -->
<g id="edge18" class="edge">
<title>UDeleteComponent&#45;&gt;UserModule</title>
<path fill="none" stroke="black" d="M2804,-122.02C2804,-139.37 2804,-163 2804,-163 2804,-163 2718.22,-163 2718.22,-163"/>
<polygon fill="black" stroke="black" points="2718.22,-159.5 2708.22,-163 2718.22,-166.5 2718.22,-159.5"/>
</g>
<!-- UEditComponent -->
<g id="node23" class="node">
<title>UEditComponent</title>
<polygon fill="#ffffb3" stroke="black" points="2722.27,-122 2607.73,-122 2607.73,-86 2722.27,-86 2722.27,-122"/>
<text text-anchor="middle" x="2665" y="-99.8" font-family="Times,serif" font-size="14.00">UEditComponent</text>
</g>
<!-- UEditComponent&#45;&gt;UserModule -->
<g id="edge19" class="edge">
<title>UEditComponent&#45;&gt;UserModule</title>
<path fill="none" stroke="black" d="M2665,-122.11C2665,-122.11 2665,-140.99 2665,-140.99"/>
<polygon fill="black" stroke="black" points="2661.5,-140.99 2665,-150.99 2668.5,-140.99 2661.5,-140.99"/>
</g>
<!-- UIndexComponent -->
<g id="node24" class="node">
<title>UIndexComponent</title>
<polygon fill="#ffffb3" stroke="black" points="2589.81,-122 2466.19,-122 2466.19,-86 2589.81,-86 2589.81,-122"/>
<text text-anchor="middle" x="2528" y="-99.8" font-family="Times,serif" font-size="14.00">UIndexComponent</text>
</g>
<!-- UIndexComponent&#45;&gt;UserModule -->
<g id="edge20" class="edge">
<title>UIndexComponent&#45;&gt;UserModule</title>
<path fill="none" stroke="black" d="M2528,-122.13C2528,-142.57 2528,-173 2528,-173 2528,-173 2611.65,-173 2611.65,-173"/>
<polygon fill="black" stroke="black" points="2611.65,-176.5 2621.65,-173 2611.65,-169.5 2611.65,-176.5"/>
</g>
<!-- UserRoutingModule -->
<g id="node26" class="node">
<title>UserRoutingModule</title>
<polygon fill="#8dd3c7" stroke="black" points="2441.59,-122 2438.59,-126 2417.59,-126 2414.59,-122 2310.41,-122 2310.41,-86 2441.59,-86 2441.59,-122"/>
<text text-anchor="middle" x="2376" y="-99.8" font-family="Times,serif" font-size="14.00">UserRoutingModule</text>
</g>
<!-- UserRoutingModule&#45;&gt;UserModule -->
<g id="edge21" class="edge">
<title>UserRoutingModule&#45;&gt;UserModule</title>
<path fill="none" stroke="black" d="M2376,-122.01C2376,-144.49 2376,-180 2376,-180 2376,-180 2611.73,-180 2611.73,-180"/>
<polygon fill="black" stroke="black" points="2611.73,-183.5 2621.73,-180 2611.73,-176.5 2611.73,-183.5"/>
</g>
</g>
</svg>
