<?xml version="1.0" encoding="UTF-8" standalone="no"?>
<!DOCTYPE svg PUBLIC "-//W3C//DTD SVG 1.1//EN"
 "http://www.w3.org/Graphics/SVG/1.1/DTD/svg11.dtd">
<!-- Generated by graphviz version 2.47.0 (20210316.0004)
 -->
<!-- Title: dependencies Pages: 1 -->
<svg width="762pt" height="211pt"
 viewBox="0.00 0.00 762.00 211.00" xmlns="http://www.w3.org/2000/svg" xmlns:xlink="http://www.w3.org/1999/xlink">
<g id="graph0" class="graph" transform="scale(1 1) rotate(0) translate(4 207)">
<title>dependencies</title>
<polygon fill="white" stroke="transparent" points="-4,4 -4,-207 758,-207 758,4 -4,4"/>
<text text-anchor="start" x="356.01" y="-42.4" font-family="sans-serif" font-weight="bold" font-size="14.00">Legend</text>
<polygon fill="#ffffb3" stroke="transparent" points="143,-10 143,-30 163,-30 163,-10 143,-10"/>
<text text-anchor="start" x="166.63" y="-15.4" font-family="sans-serif" font-size="14.00"> &#160;Declarations</text>
<polygon fill="#8dd3c7" stroke="transparent" points="256,-10 256,-30 276,-30 276,-10 256,-10"/>
<text text-anchor="start" x="279.73" y="-15.4" font-family="sans-serif" font-size="14.00"> &#160;Module</text>
<polygon fill="#80b1d3" stroke="transparent" points="342,-10 342,-30 362,-30 362,-10 342,-10"/>
<text text-anchor="start" x="365.78" y="-15.4" font-family="sans-serif" font-size="14.00"> &#160;Bootstrap</text>
<polygon fill="#fdb462" stroke="transparent" points="439,-10 439,-30 459,-30 459,-10 439,-10"/>
<text text-anchor="start" x="462.67" y="-15.4" font-family="sans-serif" font-size="14.00"> &#160;Providers</text>
<polygon fill="#fb8072" stroke="transparent" points="535,-10 535,-30 555,-30 555,-10 535,-10"/>
<text text-anchor="start" x="558.73" y="-15.4" font-family="sans-serif" font-size="14.00"> &#160;Exports</text>
<g id="clust1" class="cluster">
<title>cluster_PublicModule</title>
<polygon fill="none" stroke="black" stroke-dasharray="1,5" points="8,-70 8,-195 746,-195 746,-70 8,-70"/>
</g>
<g id="clust2" class="cluster">
<title>cluster_PublicModule_declarations</title>
<polygon fill="none" stroke="black" points="180,-78 180,-130 738,-130 738,-78 180,-78"/>
</g>
<g id="clust7" class="cluster">
<title>cluster_PublicModule_imports</title>
<polygon fill="none" stroke="black" points="16,-78 16,-130 172,-130 172,-78 16,-78"/>
</g>
<!-- ContactComponent -->
<g id="node1" class="node">
<title>ContactComponent</title>
<polygon fill="#ffffb3" stroke="black" points="730.38,-122 605.62,-122 605.62,-86 730.38,-86 730.38,-122"/>
<text text-anchor="middle" x="668" y="-99.8" font-family="Times,serif" font-size="14.00">ContactComponent</text>
</g>
<!-- PublicModule -->
<g id="node5" class="node">
<title>PublicModule</title>
<polygon fill="#8dd3c7" stroke="black" points="439.83,-187 436.83,-191 415.83,-191 412.83,-187 344.17,-187 344.17,-151 439.83,-151 439.83,-187"/>
<text text-anchor="middle" x="392" y="-164.8" font-family="Times,serif" font-size="14.00">PublicModule</text>
</g>
<!-- ContactComponent&#45;&gt;PublicModule -->
<g id="edge1" class="edge">
<title>ContactComponent&#45;&gt;PublicModule</title>
<path fill="none" stroke="black" d="M668,-122.28C668,-143.32 668,-175 668,-175 668,-175 449.76,-175 449.76,-175"/>
<polygon fill="black" stroke="black" points="449.76,-171.5 439.76,-175 449.76,-178.5 449.76,-171.5"/>
</g>
<!-- HomeComponent -->
<g id="node2" class="node">
<title>HomeComponent</title>
<polygon fill="#ffffb3" stroke="black" points="587.55,-122 472.45,-122 472.45,-86 587.55,-86 587.55,-122"/>
<text text-anchor="middle" x="530" y="-99.8" font-family="Times,serif" font-size="14.00">HomeComponent</text>
</g>
<!-- HomeComponent&#45;&gt;PublicModule -->
<g id="edge2" class="edge">
<title>HomeComponent&#45;&gt;PublicModule</title>
<path fill="none" stroke="black" d="M530,-122.02C530,-139.37 530,-163 530,-163 530,-163 449.88,-163 449.88,-163"/>
<polygon fill="black" stroke="black" points="449.88,-159.5 439.88,-163 449.88,-166.5 449.88,-159.5"/>
</g>
<!-- PlayoutComponent -->
<g id="node3" class="node">
<title>PlayoutComponent</title>
<polygon fill="#ffffb3" stroke="black" points="454.11,-122 329.89,-122 329.89,-86 454.11,-86 454.11,-122"/>
<text text-anchor="middle" x="392" y="-99.8" font-family="Times,serif" font-size="14.00">PlayoutComponent</text>
</g>
<!-- PlayoutComponent&#45;&gt;PublicModule -->
<g id="edge3" class="edge">
<title>PlayoutComponent&#45;&gt;PublicModule</title>
<path fill="none" stroke="black" d="M392,-122.11C392,-122.11 392,-140.99 392,-140.99"/>
<polygon fill="black" stroke="black" points="388.5,-140.99 392,-150.99 395.5,-140.99 388.5,-140.99"/>
</g>
<!-- ServiceComponent -->
<g id="node4" class="node">
<title>ServiceComponent</title>
<polygon fill="#ffffb3" stroke="black" points="311.81,-122 188.19,-122 188.19,-86 311.81,-86 311.81,-122"/>
<text text-anchor="middle" x="250" y="-99.8" font-family="Times,serif" font-size="14.00">ServiceComponent</text>
</g>
<!-- ServiceComponent&#45;&gt;PublicModule -->
<g id="edge4" class="edge">
<title>ServiceComponent&#45;&gt;PublicModule</title>
<path fill="none" stroke="black" d="M250,-122.02C250,-139.37 250,-163 250,-163 250,-163 334.32,-163 334.32,-163"/>
<polygon fill="black" stroke="black" points="334.32,-166.5 344.32,-163 334.32,-159.5 334.32,-166.5"/>
</g>
<!-- PublicRoutingModule -->
<g id="node6" class="node">
<title>PublicRoutingModule</title>
<polygon fill="#8dd3c7" stroke="black" points="164.45,-122 161.45,-126 140.45,-126 137.45,-122 23.55,-122 23.55,-86 164.45,-86 164.45,-122"/>
<text text-anchor="middle" x="94" y="-99.8" font-family="Times,serif" font-size="14.00">PublicRoutingModule</text>
</g>
<!-- PublicRoutingModule&#45;&gt;PublicModule -->
<g id="edge5" class="edge">
<title>PublicRoutingModule&#45;&gt;PublicModule</title>
<path fill="none" stroke="black" d="M94,-122.28C94,-143.32 94,-175 94,-175 94,-175 334.12,-175 334.12,-175"/>
<polygon fill="black" stroke="black" points="334.12,-178.5 344.12,-175 334.12,-171.5 334.12,-178.5"/>
</g>
</g>
</svg>
